<svg width="284" height="352" viewBox="0 0 284 352" fill="none" xmlns="http://www.w3.org/2000/svg">
<path d="M180.79 284.952H103.21C101.51 284.952 100.12 286.334 100.243 288.031C100.427 290.566 100.836 293.039 101.451 295.429C104.776 308.359 114.112 318.873 126.299 323.811L128.159 322.976C140.38 315.765 155.144 313.065 170.377 315.765C176.209 310.381 180.51 303.359 182.549 295.429C183.164 293.039 183.573 290.566 183.757 288.031C183.88 286.334 182.49 284.952 180.79 284.952Z" fill="white"/>
<path d="M126.299 323.811C131.148 325.775 136.448 326.857 142 326.857C152.949 326.857 162.916 322.651 170.377 315.765C155.144 313.065 140.38 315.765 128.159 322.976L126.299 323.811Z" fill="white"/>
<path fill-rule="evenodd" clip-rule="evenodd" d="M15.3195 216.66C15.3195 209.117 15.8984 202.2 17.0115 195.859C18.9966 184.551 26.3674 175.253 35.2493 168.069C36.3053 167.254 37.7707 167.254 38.8267 168.069L50.2859 176.909C51.3419 177.724 52.8074 177.724 53.8633 176.909L65.3226 168.069C66.3786 167.254 67.844 167.254 68.9 168.069L80.3593 176.909C81.4152 177.724 82.8807 177.724 83.9367 176.909L95.3959 168.069C96.4519 167.254 97.9173 167.254 98.9733 168.069L110.433 176.909C111.489 177.724 112.954 177.724 114.01 176.909L125.469 168.069C126.525 167.254 127.991 167.254 129.047 168.069L140.45 176.866C141.532 177.701 143.04 177.678 144.096 176.811L154.578 168.213C155.66 167.325 157.211 167.325 158.293 168.213L168.826 176.853C169.859 177.7 171.327 177.743 172.407 176.957L184.786 167.943C185.815 167.194 187.203 167.194 188.232 167.943L200.667 176.997C201.721 177.764 203.147 177.744 204.179 176.948L215.689 168.069C216.745 167.254 218.211 167.254 219.267 168.069L230.726 176.909C231.782 177.724 233.247 177.724 234.303 176.909L245.763 168.069C246.818 167.254 248.284 167.254 249.34 168.069C258.222 175.253 265.593 184.551 267.578 195.859C268.691 202.2 269.27 209.117 269.27 216.66C269.27 263.882 246.58 305.456 212.186 329.67C212.421 329.547 212.672 329.455 212.932 329.399L226.589 326.447C226.894 326.381 227.208 326.357 227.512 326.423C230.943 327.177 234.375 332.04 237.747 332.72C241.626 333.502 245.43 329.751 249.206 330.921C253.23 332.168 257.217 338.362 261.091 340.039C264.275 341.417 267.374 338.512 270.433 339.885C270.643 339.979 270.829 340.117 271 340.271L279.091 347.571C280.989 349.283 284 347.923 284 345.353V203.679C284 121.763 255.336 58.7142 142 58.7142C22.7332 58.7142 0 121.763 0 203.679V345.183C0 347.78 3.06427 349.13 4.94965 347.364L11.9462 340.811C12.1221 340.646 12.3157 340.5 12.5333 340.398C15.8422 338.844 19.2301 341.533 22.6846 340.039C26.5596 338.362 30.5185 332.257 34.5439 331.01C38.3232 329.84 42.1611 333.502 46.0432 332.72C49.4827 332.027 52.9568 327.215 56.4557 326.489C56.7463 326.428 57.0453 326.449 57.3362 326.508L71.6365 329.402C71.9073 329.457 72.1695 329.551 72.4146 329.678C38.0147 305.465 15.3195 263.888 15.3195 216.66ZM87.0092 108.879C83.3457 108.879 79.9315 111.91 77.0612 114.416C76.3216 115.062 75.227 115.053 74.4942 114.399C71.5747 111.796 68.0718 108.686 64.3051 108.686C46.4888 108.686 60.7508 132.514 74.5189 145.598C75.2322 146.276 76.3365 146.308 77.0814 145.665C91.2756 133.413 104.692 108.879 87.0092 108.879ZM216.354 116.835C215.481 116.835 214.709 116.269 214.446 115.436L210.376 102.517C209.788 100.652 207.148 100.652 206.561 102.517L202.49 115.436C202.227 116.269 201.455 116.835 200.582 116.835H187.282C185.359 116.835 184.544 119.283 186.083 120.436L196.947 128.575C197.627 129.084 197.911 129.967 197.656 130.777L193.531 143.868C192.947 145.721 195.082 147.235 196.638 146.07L207.269 138.105C207.98 137.572 208.956 137.572 209.667 138.105L220.299 146.07C221.854 147.235 223.989 145.721 223.405 143.868L219.28 130.777C219.025 129.967 219.309 129.084 219.989 128.575L230.854 120.436C232.392 119.283 231.577 116.835 229.654 116.835H216.354Z" fill="white"/>
<path d="M124.805 29.745C124.805 16.0684 132.085 4.54775 142 1.07267C142.528 0.88746 142.459 0 141.9 0C125.629 0 112.439 13.3173 112.439 29.745C112.439 41.6037 119.666 54.3988 129.639 58.9514C133.481 60.7055 137.475 58.7142 142 58.7142C132.085 55.2392 124.805 43.4216 124.805 29.745Z" fill="white"/>
<path d="M56.3824 263.439C57.5357 261.434 60.0899 260.748 62.0875 261.905C64.0851 263.062 64.7695 265.625 63.6162 267.629L59.4397 274.887C58.2864 276.891 55.7321 277.578 53.7346 276.421C51.737 275.264 51.0526 272.701 52.2059 270.697L56.3824 263.439Z" fill="white"/>
<path d="M89.7941 263.439C90.9474 261.434 93.5017 260.748 95.4993 261.905C97.4969 263.062 98.1813 265.625 97.028 267.629L92.8515 274.887C91.6982 276.891 89.1439 277.578 87.1463 276.421C85.1488 275.264 84.4643 272.701 85.6176 270.697L89.7941 263.439Z" fill="white"/>
<path d="M73.0882 263.439C74.2415 261.434 76.7958 260.748 78.7934 261.905C80.791 263.062 81.4754 265.625 80.3221 267.629L76.1456 274.887C74.9923 276.891 72.438 277.578 70.4405 276.421C68.4429 275.264 67.7585 272.701 68.9118 270.697L73.0882 263.439Z" fill="white"/>
<path d="M234.851 263.439C233.698 261.434 231.143 260.748 229.146 261.905C227.148 263.062 226.464 265.625 227.617 267.629L231.794 274.887C232.947 276.891 235.501 277.578 237.499 276.421C239.496 275.264 240.181 272.701 239.027 270.697L234.851 263.439Z" fill="white"/>
<path d="M201.439 263.439C200.286 261.434 197.732 260.748 195.734 261.905C193.737 263.062 193.052 265.625 194.205 267.629L198.382 274.887C199.535 276.891 202.089 277.578 204.087 276.421C206.085 275.264 206.769 272.701 205.616 270.697L201.439 263.439Z" fill="white"/>
<path d="M218.145 263.439C216.992 261.434 214.438 260.748 212.44 261.905C210.442 263.062 209.758 265.625 210.911 267.629L215.088 274.887C216.241 276.891 218.795 277.578 220.793 276.421C222.79 275.264 223.475 272.701 222.322 270.697L218.145 263.439Z" fill="white"/>
<path d="M139.99 252.162C141.143 250.158 143.697 249.471 145.695 250.628C147.692 251.785 148.377 254.348 147.224 256.353L143.047 263.611C141.894 265.615 139.34 266.302 137.342 265.145C135.344 263.987 134.66 261.425 135.813 259.42L139.99 252.162Z" fill="white"/>
<path fill-rule="evenodd" clip-rule="evenodd" d="M57.4018 191.654C59.3974 190.57 61.8916 191.313 62.9727 193.315L66.6511 200.125C64.0197 201.178 61.5651 202.439 59.3263 203.871L55.7459 197.242C54.6648 195.24 55.4062 192.739 57.4018 191.654ZM53.9326 208.037L48.6971 203.348C47.0042 201.832 44.4063 201.979 42.8946 203.677C41.3828 205.375 41.5298 207.981 43.2227 209.497L48.694 214.398C50.0721 212.132 51.838 209.993 53.9326 208.037Z" fill="white"/>
<path fill-rule="evenodd" clip-rule="evenodd" d="M221.963 193.315C223.044 191.313 225.538 190.57 227.534 191.654C229.53 192.739 230.271 195.24 229.19 197.242L225.609 203.871C223.371 202.439 220.916 201.178 218.285 200.125L221.963 193.315ZM236.242 214.398L241.713 209.497C243.406 207.981 243.553 205.375 242.041 203.677C240.53 201.979 237.932 201.832 236.239 203.348L231.003 208.037C233.098 209.993 234.864 212.132 236.242 214.398Z" fill="white"/>
<path d="M85.5349 250.491C105.799 247.907 120.708 233.841 118.837 219.075C118.234 214.324 115.969 210.08 112.498 206.594C110.626 204.714 108.403 203.055 105.902 201.655C104.143 200.671 102.245 199.815 100.234 199.101C97.7328 198.214 95.0568 197.547 92.2541 197.127C89.2468 196.676 86.0936 196.51 82.8541 196.66C81.5019 196.723 80.1346 196.841 78.7566 197.017C77.3787 197.193 76.0254 197.422 74.7006 197.7C71.877 198.294 69.1823 199.113 66.6511 200.125C64.0197 201.178 61.5651 202.439 59.3263 203.871C57.3515 205.135 55.5447 206.532 53.9326 208.037C51.838 209.993 50.0721 212.132 48.694 214.398C46.0533 218.739 44.8357 223.548 45.455 228.433C47.3267 243.2 65.2712 253.075 85.5349 250.491Z" fill="white"/>
<path d="M81.9163 189.262C81.6301 187.004 79.5728 185.406 77.3212 185.693C75.0697 185.98 73.4766 188.044 73.7628 190.302L74.7006 197.7C76.0254 197.422 77.3787 197.193 78.7566 197.017C80.1346 196.841 81.5019 196.723 82.8541 196.66L81.9163 189.262Z" fill="white"/>
<path d="M102.161 191.323C102.708 189.113 101.366 186.877 99.1638 186.328C96.9611 185.779 94.7318 187.125 94.1844 189.334L92.2541 197.127C95.0568 197.547 97.7328 198.214 100.234 199.101L102.161 191.323Z" fill="white"/>
<path d="M116.815 200.112C118.076 198.219 117.568 195.659 115.68 194.394C113.793 193.13 111.241 193.639 109.98 195.532L105.902 201.655C108.403 203.055 110.626 204.714 112.498 206.594L116.815 200.112Z" fill="white"/>
<path d="M166.099 219.075C164.227 233.841 179.137 247.907 199.401 250.491C219.665 253.075 237.609 243.2 239.481 228.433C240.1 223.548 238.883 218.739 236.242 214.398C234.864 212.132 233.098 209.993 231.003 208.037C229.391 206.532 227.584 205.135 225.609 203.871C223.371 202.439 220.916 201.178 218.285 200.125C215.754 199.113 213.059 198.294 210.235 197.7C208.91 197.422 207.557 197.193 206.179 197.017C204.801 196.841 203.434 196.723 202.082 196.66C198.842 196.51 195.689 196.676 192.682 197.127C189.879 197.547 187.203 198.214 184.702 199.101C182.691 199.815 180.793 200.671 179.033 201.655C176.532 203.055 174.31 204.714 172.438 206.594C168.967 210.08 166.701 214.324 166.099 219.075Z" fill="white"/>
<path d="M169.255 194.394C167.368 195.659 166.86 198.219 168.121 200.112L172.438 206.594C174.31 204.714 176.532 203.055 179.033 201.655L174.955 195.532C173.695 193.639 171.143 193.13 169.255 194.394Z" fill="white"/>
<path d="M185.772 186.328C183.569 186.877 182.227 189.113 182.775 191.323L184.702 199.101C187.203 198.214 189.879 197.547 192.682 197.127L190.751 189.334C190.204 187.125 187.975 185.779 185.772 186.328Z" fill="white"/>
<path d="M207.615 185.693C205.363 185.406 203.306 187.004 203.019 189.262L202.082 196.66C203.434 196.723 204.801 196.841 206.179 197.017C207.557 197.193 208.91 197.422 210.235 197.7L211.173 190.302C211.459 188.044 209.866 185.98 207.615 185.693Z" fill="white"/>
</svg>
